<svg xmlns="http://www.w3.org/2000/svg" width="24" height="24" viewBox="0 0 24 24" fill="none" class="injected-svg" data-src="https://hugeicons.storage.googleapis.com/icons/download-square-01-stroke-rounded.svg?type=svg" xmlns:xlink="http://www.w3.org/1999/xlink" role="img" color="#000000">
<path d="M2.5 12C2.5 7.52166 2.5 5.28249 3.89124 3.89124C5.28249 2.5 7.52166 2.5 12 2.5C16.4783 2.5 18.7175 2.5 20.1088 3.89124C21.5 5.28249 21.5 7.52166 21.5 12C21.5 16.4783 21.5 18.7175 20.1088 20.1088C18.7175 21.5 16.4783 21.5 12 21.5C7.52166 21.5 5.28249 21.5 3.89124 20.1088C2.5 18.7175 2.5 16.4783 2.5 12Z" stroke="#000000" stroke-width="1.5"></path>
<path d="M12 16L12 8M12 16C11.2998 16 9.99153 14.0057 9.5 13.5M12 16C12.7002 16 14.0085 14.0057 14.5 13.5" stroke="#000000" stroke-width="1.5" stroke-linecap="round" stroke-linejoin="round"></path>
</svg>